<svg xmlns="http://www.w3.org/2000/svg" viewBox="0 0 1216 171" fill="none"><path fill="#fff" d="M275.89 45.45h-50.861V31.406h50.861V45.45Zm6.217-31.515h-70.172v62.921H198V7.021c0-.965.179-1.876.536-2.733a7.377 7.377 0 0 1 1.447-2.251 6.91 6.91 0 0 1 2.251-1.501A7.177 7.177 0 0 1 205.021 0h77.086v13.935ZM391.87 69.835c0 1-.178 1.93-.536 2.787a6.9 6.9 0 0 1-1.5 2.251 7.378 7.378 0 0 1-2.251 1.447 7.039 7.039 0 0 1-2.734.536h-46.752c-2.966 0-5.967-.321-9.004-.965a41.493 41.493 0 0 1-8.844-2.947 38.974 38.974 0 0 1-7.985-5.145c-2.501-2.073-4.699-4.52-6.593-7.343-1.858-2.859-3.322-6.11-4.394-9.755-1.072-3.68-1.608-7.77-1.608-12.273V0h13.935v38.428c0 3.93.536 7.253 1.607 9.969 1.108 2.715 2.502 4.984 4.181 6.806 1.679 1.823 3.519 3.252 5.52 4.288 2.001 1.036 3.895 1.805 5.681 2.305 1.823.5 3.413.822 4.77.965 1.394.107 2.305.16 2.734.16h39.839V0h13.934v69.835ZM495.049 76.856h-78.595a7.17 7.17 0 0 1-2.787-.536 7.366 7.366 0 0 1-2.251-1.447 7.358 7.358 0 0 1-1.447-2.25 7.16 7.16 0 0 1-.536-2.788V0h13.935v62.921h71.681v13.935ZM598.227 76.856h-78.595a7.17 7.17 0 0 1-2.787-.536 7.366 7.366 0 0 1-2.251-1.447 7.358 7.358 0 0 1-1.447-2.25 7.16 7.16 0 0 1-.536-2.788V0h13.935v62.921h71.681v13.935ZM741.975 45.45l-50.861.025V31.433l50.861-.026V45.45Zm6.217-31.515-70.172.026v62.92h-13.935V7.048c0-.965.179-1.876.536-2.734a7.377 7.377 0 0 1 1.447-2.25 6.91 6.91 0 0 1 2.251-1.501 7.177 7.177 0 0 1 2.787-.536L748.192 0v13.935ZM863.662 46.843c0 4.68-.804 8.986-2.411 12.916-1.608 3.93-3.841 7.325-6.7 10.183-2.858 2.859-6.253 5.092-10.183 6.7-3.895 1.572-8.147 2.358-12.756 2.358h-33.701c-4.609 0-8.879-.786-12.809-2.358-3.931-1.608-7.325-3.841-10.183-6.7-2.859-2.858-5.11-6.252-6.753-10.183-1.608-3.93-2.412-8.236-2.412-12.916V32.157c0-4.645.804-8.932 2.412-12.863 1.643-3.966 3.894-7.36 6.753-10.183 2.858-2.858 6.252-5.091 10.183-6.7C789.032.805 793.302 0 797.911 0h33.701c4.609 0 8.861.804 12.756 2.412 3.93 1.608 7.325 3.84 10.183 6.7 2.859 2.822 5.092 6.216 6.7 10.182 1.607 3.93 2.411 8.218 2.411 12.863v14.686Zm-13.935-14.686c0-2.75-.446-5.234-1.339-7.45-.858-2.25-2.091-4.162-3.699-5.734-1.572-1.608-3.483-2.84-5.734-3.698-2.216-.893-4.663-1.34-7.343-1.34h-33.701c-2.715 0-5.199.447-7.45 1.34-2.215.857-4.126 2.09-5.734 3.698-1.608 1.572-2.859 3.484-3.752 5.735-.858 2.215-1.286 4.698-1.286 7.45v14.685c0 2.75.428 5.252 1.286 7.503.893 2.215 2.144 4.127 3.752 5.735 1.608 1.572 3.519 2.805 5.734 3.698 2.251.857 4.735 1.286 7.45 1.286h33.594c2.715 0 5.181-.429 7.396-1.286 2.251-.893 4.181-2.126 5.788-3.698 1.608-1.608 2.841-3.52 3.699-5.735.893-2.251 1.339-4.752 1.339-7.503V32.157ZM965.52 76.856h-64.733c-1.286 0-2.68-.143-4.181-.429a23.405 23.405 0 0 1-4.394-1.447 21.332 21.332 0 0 1-4.127-2.465 18.367 18.367 0 0 1-3.538-3.698c-1-1.465-1.804-3.144-2.411-5.038-.608-1.93-.912-4.091-.912-6.485V19.562c0-1.286.143-2.662.429-4.127.322-1.5.804-2.965 1.447-4.394a19.424 19.424 0 0 1 2.519-4.18 17.202 17.202 0 0 1 3.698-3.484c1.465-1.037 3.145-1.858 5.038-2.466C896.249.304 898.393 0 900.787 0h64.733v13.935h-64.733c-1.822 0-3.216.482-4.181 1.447-.964.965-1.447 2.394-1.447 4.288v37.624c0 1.786.483 3.18 1.447 4.18 1.001.965 2.394 1.447 4.181 1.447h64.733v13.935ZM1075.28 69.835c0 1-.17 1.93-.53 2.787a6.996 6.996 0 0 1-1.5 2.251c-.65.608-1.4 1.09-2.25 1.447-.86.358-1.77.536-2.74.536l-46.75.052c-2.97 0-5.97-.322-9-.965a41.501 41.501 0 0 1-8.85-2.948 39.014 39.014 0 0 1-7.983-5.145c-2.501-2.072-4.698-4.52-6.592-7.343-1.858-2.858-3.323-6.11-4.395-9.754-1.072-3.68-1.608-7.771-1.608-12.273V.05h13.935V38.48c0 3.93.536 7.254 1.608 9.97 1.108 2.715 2.505 4.984 4.185 6.806 1.67 1.822 3.51 3.252 5.52 4.288 2 1.036 3.89 1.804 5.68 2.304 1.82.5 3.41.822 4.77.965 1.39.107 2.3.16 2.73.16l39.84-.05V0h13.93v69.835ZM1187.68 54.239c0 2.751-.36 5.234-1.07 7.45-.68 2.18-1.59 4.109-2.74 5.788a18.279 18.279 0 0 1-4.02 4.288 24.275 24.275 0 0 1-4.77 2.894c-1.64.75-3.32 1.304-5.03 1.661-1.68.358-3.27.536-4.77.536h-71.79V62.921h71.79c2.67 0 4.75-.786 6.21-2.358 1.5-1.572 2.25-3.68 2.25-6.324 0-1.286-.19-2.466-.59-3.537-.39-1.072-.96-2.001-1.71-2.788-.72-.786-1.61-1.393-2.68-1.822-1.04-.428-2.2-.643-3.48-.643h-50.08c-2.26 0-4.69-.393-7.29-1.179-2.61-.822-5.04-2.126-7.29-3.913-2.22-1.786-4.08-4.126-5.58-7.02-1.46-2.895-2.19-6.432-2.19-10.612s.73-7.7 2.19-10.559c1.5-2.894 3.36-5.234 5.58-7.02 2.25-1.823 4.68-3.127 7.29-3.913C1110.51.41 1112.94 0 1115.2 0h65.46v13.935h-65.46c-2.65 0-4.72.804-6.22 2.412-1.47 1.607-2.2 3.733-2.2 6.378 0 2.68.73 4.805 2.2 6.377 1.5 1.537 3.57 2.305 6.22 2.305h50.18c1.5.036 3.09.25 4.77.643 1.68.358 3.34.93 4.99 1.715a23.16 23.16 0 0 1 4.77 3.002c1.5 1.179 2.82 2.608 3.96 4.287 1.18 1.68 2.11 3.609 2.79 5.789.68 2.18 1.02 4.645 1.02 7.396Z"/><path fill="currentColor" d="M245.175 160H210.15c-2.45 0-4.275-.5-5.475-1.5-1.2-1.05-1.8-2.875-1.8-5.475V107.5h6.975v43.65c0 1.25.225 2.1.675 2.55.45.4 1.325.6 2.625.6H240v-46.8h6.975v46.8h1.575c2.4 0 4.15.55 5.25 1.65 1.15 1.1 1.725 3 1.725 5.7v8.475h-6.975v-6.6c0-1.35-.225-2.275-.675-2.775-.4-.5-1.3-.75-2.7-.75Zm62.855 0h-32.775c-4.9 0-7.35-2.475-7.35-7.425v-37.65c0-2.7.625-4.6 1.875-5.7 1.25-1.15 3.075-1.725 5.475-1.725h32.475v5.7h-29.4c-1.4 0-2.325.25-2.775.75-.45.5-.675 1.425-.675 2.775V130.3h32.1v5.7h-32.1v14.7c0 1.35.225 2.3.675 2.85.45.5 1.375.75 2.775.75h29.7v5.7Zm61.108-52.5V160h-6.975v-24h-30.675v24h-6.975v-52.5h6.975v22.8h30.675v-22.8h6.975Zm42.045 52.5h-6.975v-46.8h-21.225v-5.7h49.425v5.7h-21.225V160Zm42.089 0h-6.975v-45.45c0-2.6.575-4.425 1.725-5.475 1.2-1.05 2.975-1.575 5.325-1.575h24.075c5 0 8.475 1.35 10.425 4.05 2 2.65 3 6.65 3 12 0 5.55-.975 9.675-2.925 12.375-1.95 2.7-5.45 4.05-10.5 4.05h-24.15V160Zm0-25.725h21.675c3.5 0 5.8-.825 6.9-2.475 1.15-1.7 1.725-4.45 1.725-8.25 0-3.65-.575-6.275-1.725-7.875-1.15-1.65-3.45-2.475-6.9-2.475h-18.3c-1.4 0-2.325.25-2.775.75-.4.5-.6 1.4-.6 2.7v17.625ZM580.977 160h-9.45l-24.225-20.175c-2.4-2-3.6-4.275-3.6-6.825 0-2 1.075-3.925 3.225-5.775l22.2-19.725h9.075l-24.75 21.675c-.15.15-.425.375-.825.675-.35.3-.625.55-.825.75-.15.15-.35.375-.6.675-.25.25-.425.525-.525.825-.1.3-.15.6-.15.9 0 1.25 1.175 2.825 3.525 4.725L580.977 160Zm-47.1 0v-52.5h6.975V160h-6.975Zm106.855 0h-6.975l.225-43.575c0-1.1-.2-1.65-.6-1.65-.5 0-1.225.775-2.175 2.325l-24.3 38.775c-.75 1.15-1.325 1.975-1.725 2.475-.4.5-1.075 1-2.025 1.5s-2.075.75-3.375.75c-4.05 0-6.075-2.5-6.075-7.5v-45.6h6.975l-.15 42.9c0 1.55.25 2.325.75 2.325.4 0 .925-.525 1.575-1.575l23.925-38.55c1.3-2.1 2.5-3.575 3.6-4.425 1.1-.85 2.45-1.275 4.05-1.275 4.2 0 6.3 2.675 6.3 8.025V160Zm60.588-52.5v5.7h-31.425c-1.4 0-2.325.25-2.775.75-.45.5-.675 1.425-.675 2.775V130.3h25.8c4.4 0 7.45 1.275 9.15 3.825 1.7 2.5 2.55 6.125 2.55 10.875 0 4.8-.85 8.5-2.55 11.1-1.65 2.6-4.65 3.9-9 3.9H666.82c-2.4 0-4.225-.55-5.475-1.65-1.25-1.15-1.875-3.075-1.875-5.775v-37.65c0-2.7.625-4.6 1.875-5.7 1.25-1.15 3.075-1.725 5.475-1.725h34.5ZM689.095 136h-22.65v14.7c0 1.35.225 2.3.675 2.85.45.5 1.375.75 2.775.75h19.2c2.95 0 4.95-.725 6-2.175 1.05-1.5 1.575-3.875 1.575-7.125s-.525-5.55-1.575-6.9c-1-1.4-3-2.1-6-2.1Zm72.234 24h-32.775c-4.9 0-7.35-2.475-7.35-7.425v-37.65c0-2.7.625-4.6 1.875-5.7 1.25-1.15 3.075-1.725 5.475-1.725h32.475v5.7h-29.4c-1.4 0-2.325.25-2.775.75-.45.5-.675 1.425-.675 2.775V130.3h32.1v5.7h-32.1v14.7c0 1.35.225 2.3.675 2.85.45.5 1.375.75 2.775.75h29.7v5.7Zm23.458 0h-6.975v-45.45c0-2.6.575-4.425 1.725-5.475 1.2-1.05 2.975-1.575 5.325-1.575h24.075c5 0 8.475 1.35 10.425 4.05 2 2.65 3 6.65 3 12 0 5.55-.975 9.675-2.925 12.375-1.95 2.7-5.45 4.05-10.5 4.05h-24.15V160Zm0-25.725h21.675c3.5 0 5.8-.825 6.9-2.475 1.15-1.7 1.725-4.45 1.725-8.25 0-3.65-.575-6.275-1.725-7.875-1.15-1.65-3.45-2.475-6.9-2.475h-18.3c-1.4 0-2.325.25-2.775.75-.4.5-.6 1.4-.6 2.7v17.625ZM880.737 160h-21.45c-3.4 0-6.4-.45-9-1.35-2.6-.9-4.7-2.125-6.3-3.675-1.6-1.55-2.925-3.45-3.975-5.7-1-2.3-1.7-4.7-2.1-7.2-.35-2.5-.525-5.3-.525-8.4 0-3.95.325-7.4.975-10.35a25.032 25.032 0 0 1 3.375-8.175c1.6-2.5 3.9-4.4 6.9-5.7 3-1.3 6.675-1.95 11.025-1.95h20.325v5.7h-18c-6.45 0-10.95 1.6-13.5 4.8-2.55 3.15-3.825 8.375-3.825 15.675 0 7.3 1.25 12.575 3.75 15.825 2.5 3.2 6.9 4.8 13.2 4.8h19.125v5.7Zm22.831 0h-6.975v-45.075c0-2.7.625-4.6 1.875-5.7 1.25-1.15 3.075-1.725 5.475-1.725h29.325c2.45 0 4.3.575 5.55 1.725 1.25 1.1 1.875 3 1.875 5.7V160h-6.975v-43.275c0-1.35-.25-2.275-.75-2.775-.45-.5-1.375-.75-2.775-.75h-23.175c-1.4 0-2.325.25-2.775.75-.45.5-.675 1.425-.675 2.775V160Zm80.533-53.1c9.7 0 16.479 1.975 20.329 5.925 3.9 3.95 5.85 10.925 5.85 20.925s-1.95 16.975-5.85 20.925c-3.85 3.95-10.629 5.925-20.329 5.925-9.65 0-16.425-1.975-20.325-5.925-3.9-3.95-5.85-10.925-5.85-20.925s1.95-16.975 5.85-20.925c3.9-3.95 10.675-5.925 20.325-5.925Zm-15 10.275c-2.6 3-3.9 8.525-3.9 16.575 0 8.05 1.3 13.6 3.9 16.65 2.65 3 7.65 4.5 15 4.5s12.325-1.5 14.925-4.5c2.654-3.05 3.974-8.6 3.974-16.65 0-8.05-1.32-13.575-3.974-16.575-2.6-3.05-7.575-4.575-14.925-4.575-7.35 0-12.35 1.525-15 4.575ZM1034.51 160h-6.98v-45.45c0-2.6.58-4.425 1.73-5.475 1.2-1.05 2.97-1.575 5.32-1.575h24.08c5 0 8.47 1.35 10.42 4.05 2 2.65 3 6.65 3 12 0 5.55-.97 9.675-2.92 12.375-1.95 2.7-5.45 4.05-10.5 4.05h-24.15V160Zm0-25.725h21.67c3.5 0 5.8-.825 6.9-2.475 1.15-1.7 1.73-4.45 1.73-8.25 0-3.65-.58-6.275-1.73-7.875-1.15-1.65-3.45-2.475-6.9-2.475h-18.3c-1.4 0-2.32.25-2.77.75-.4.5-.6 1.4-.6 2.7v17.625ZM1111.93 160h-6.97v-46.8h-21.23v-5.7h49.43v5.7h-21.23V160Zm22.02 0 19.95-47.325c.85-2 1.8-3.45 2.85-4.35 1.05-.95 2.5-1.425 4.35-1.425 1.8 0 3.25.475 4.35 1.425 1.15.95 2.13 2.4 2.93 4.35L1188.25 160h-7.35l-5.92-14.25h-27.83L1141.3 160h-7.35Zm25.35-44.025-10.05 24.075h23.63l-9.9-24.075c-.75-1.7-1.38-2.55-1.88-2.55-.15 0-.3.05-.45.15-.1.05-.2.15-.3.3-.1.1-.22.25-.37.45-.1.2-.18.375-.23.525-.05.15-.12.35-.22.6s-.18.425-.23.525ZM0 .01h159l-32.523 32.522H0V.01ZM0 62.646v96.364l32.523-32.523v-63.84H0ZM62.636 62.646h32.523v32.523H62.636z"/></svg>
