<svg xmlns="http://www.w3.org/2000/svg" fill="none" viewBox="0 0 512 512"><mask id="mask0_1546_192" width="385" height="383" x="61" y="73" maskUnits="userSpaceOnUse" style="mask-type:alpha"><path fill="url(#paint0_linear_1546_192)" d="M61.88 263.28a12.451 12.451 0 0 1 2.47-7.62 11.002 11.002 0 0 1 12.1-3.66c5 1.66 7.85 5.52 7.86 11 .04 21.18.04 42.357 0 63.53v5.06c5.79 0 11.45-.06 17.12 0a11.157 11.157 0 0 1 10.43 7.65 10.756 10.756 0 0 1-4.13 12.52 13.352 13.352 0 0 1-6.55 2.16c-9.34.23-18.68.08-28 .1-5.79 0-9-3.54-11.3-8.22v-82.52Z"/><path fill="url(#paint1_linear_1546_192)" d="M308.669 417.66c-3.13 2.84-6.08 5.49-9 8.17-2.65 2.43-5.64 3.17-8.93 1.57-3.29-1.6-4.29-4.26-4.25-7.68.22-22.19.35-44.39.6-66.59.08-6.48 5-9.85 10.93-7.37 20.65 8.63 41.24 17.39 61.86 26.11 3.15 1.34 5.05 3.7 5.05 7.17 0 3.47-2 5.78-5.07 7.19-3.6 1.63-7.19 3.29-11.11 5.08 5.95 9.13 11.71 18 17.46 26.81 1.64 2.51 3.34 5 4.88 7.53 2.51 4.18 1.88 8.13-2.07 10.8a1159.223 1159.223 0 0 1-27.15 17.86c-4.24 2.7-8.13 1.52-11.15-3.06-6.64-10.09-13.2-20.24-19.8-30.36-.66-1.03-1.39-2.01-2.25-3.23Z"/><path fill="url(#paint2_linear_1546_192)" d="M422.15 306.9v-5l-.18-38.16c0-7.29 4.54-12.23 11.19-12.23 6.65 0 11.17 4.89 11.24 12.2.254 24.94.497 49.88.73 74.82a19.98 19.98 0 0 1-.29 4.84c-1.24 5.18-4.47 8.65-9.74 9.68-5.27 1.03-9.37-1.05-12.33-5.25-6.68-9.47-13.21-19-19.81-28.57l-13.68-19.77c-.13 1.74-.27 2.73-.27 3.72v38.53c0 7.38-4.43 12.3-11.06 12.36-6.85.07-11.37-4.82-11.38-12.4v-77.44c0-6.43 2.64-10.39 7.94-12.07 5.3-1.68 9.69.15 13.39 5.5a14650.91 14650.91 0 0 1 31 44.9c.81 1.13 1.7 2.25 3.25 4.34Z"/><path fill="url(#paint3_linear_1546_192)" d="M213.318 302.89a51.358 51.358 0 0 1-15.266 36.217 51.366 51.366 0 0 1-36.404 14.813 51.346 51.346 0 0 1-47.243-31.994 51.353 51.353 0 0 1-3.787-19.676c.16-28.26 23.48-50.92 52.27-50.78 27.77.13 50.52 23.33 50.43 51.42Zm-22.62.2a28.725 28.725 0 0 0-17.498-26.676 28.713 28.713 0 0 0-31.344 5.947 28.715 28.715 0 0 0-6.513 31.231 28.72 28.72 0 0 0 26.355 17.978 28.798 28.798 0 0 0 29-28.48Z"/><path fill="url(#paint4_linear_1546_192)" d="M266.261 330.93c-.75 7.7-1.44 14.81-2.21 22.78-4-1.25-8.36-2.15-12.33-3.9-21.78-9.56-32.87-31-30.74-51.31 2.56-24.56 19.74-42.67 42.8-46.36a50.474 50.474 0 0 1 35.79 7.26c6.19 3.86 8 10.38 4.55 16-3.45 5.62-10.15 6.88-16.37 3.19-10.66-6.32-21.39-6.5-31.68.43S241.791 296 243.921 308c2.13 12 9.71 19.32 21.23 22.75.36.1.74.12 1.1.22.36.1.44.18.01-.04Z"/><path fill="url(#paint5_linear_1546_192)" d="M350 344.43c-7.2-3-14-5.83-20.64-8.82a3.63 3.63 0 0 1-1.62-2.79c-.09-23.45-.14-46.91 0-70.36a11.102 11.102 0 0 1 7.064-10.24 11.115 11.115 0 0 1 4.306-.76c6.46 0 11.1 4.85 11.12 12 .07 26.07 0 52.14 0 78.21.04.7-.08 1.44-.23 2.76Z"/><path fill="url(#paint6_linear_1546_192)" d="m312.539 328.56-20.69-8.63 1.93-5.78c-3.69 0-6.91.05-10.13 0-7-.13-12-4.73-12.15-11.07-.13-6.61 4.75-11.52 11.93-11.66 7.48-.14 14.963-.14 22.45 0 7.58.14 12 4.8 12 12.3a58.57 58.57 0 0 1-5.34 24.84Z"/><path fill="url(#paint7_linear_1546_192)" d="M264.728 148.2a11.214 11.214 0 0 1-7.018 10.325 11.21 11.21 0 1 1-3.982-21.605 11.073 11.073 0 0 1 7.861 3.338 11.068 11.068 0 0 1 3.139 7.942Z"/><path fill="url(#paint8_linear_1546_192)" d="M170.879 166.38a83.001 83.001 0 0 1 16.82-60.85 85 85 0 0 0-16.82 60.85Z"/><path fill="url(#paint9_linear_1546_192)" d="M336.569 156.4a82.892 82.892 0 0 1-25.42 59.84c-7.65-19.35-21.13-32.18-41.2-38.5 31.6-19.7 16.23-64.08-17.78-63.14-31.81 1.34-45.76 43.16-15.21 63.14-19.74 6.32-33.36 18.95-41 38.38a81.815 81.815 0 0 1-14.67-18.34c0-.07-.09-.14-.13-.22a82.473 82.473 0 0 1-10.11-29.78l-.18-1.4a85 85 0 0 1 16.82-60.85l1.11-1.41c.35-.44.7-.86 1.05-1.29.35-.43.66-.78 1-1.16.6-.7 1.21-1.39 1.84-2.07l.81-.87c.37-.39.74-.78 1.13-1.16a79.214 79.214 0 0 1 12.37-10.16l1.68-1.1c.42-.28.85-.54 1.29-.8.44-.26.69-.43 1-.63.31-.2.87-.51 1.31-.75.44-.24.88-.49 1.32-.72l1.1-.58.46-.24.67-.34.47-.24a85.534 85.534 0 0 1 28.22-8.3l2.17-.21c.72-.06 1.44-.11 2.16-.15.72 0 1.44-.08 2.16-.1 1.54 0 3.09-.06 4.63 0 1.36 0 2.72.1 4.07.2.67 0 1.34.1 2 .18.467.04.937.09 1.41.15l.92.11a83.232 83.232 0 0 1 72.53 82.51Z"/><path fill="url(#paint10_linear_1546_192)" d="M181.169 197.56a79.793 79.793 0 0 1-10.11-29.78 82.454 82.454 0 0 0 10.11 29.78Z"/><path fill="url(#paint11_linear_1546_192)" d="M264.728 148.2a11.214 11.214 0 0 1-7.018 10.325 11.21 11.21 0 1 1-3.982-21.605 11.073 11.073 0 0 1 7.861 3.338 11.068 11.068 0 0 1 3.139 7.942Z"/><path fill="url(#paint12_linear_1546_192)" d="M291.468 230a52.605 52.605 0 0 1-5.68 3c-2 .86-4.09 1.64-6.19 2.33a.837.837 0 0 1-.17.06l-.28.09-1.23.39c-.5.16-1 .31-1.51.45-1.07.31-2.15.59-3.24.86l-1.87.43c-.626.14-1.256.27-1.89.39l-1.9.35-1.71.28c-.92.13-1.84.25-2.77.36l-1.32.14c-1.13.12-2.26.2-3.4.27h-.57c-.65 0-1.3.06-2 .08H249.548l-1-.05c-.83 0-1.67-.11-2.5-.18-.53 0-1.05-.09-1.57-.15-.53-.05-1.06-.11-1.58-.18h-.57l-.63-.09-.6-.08-.44-.07c-.6-.09-1.19-.19-1.78-.3l-1.32-.25-.44-.08-.83-.16-.28-.06-.23-.05-1.34-.31-.89-.21-.24-.06-1.26-.32h-.07c-.63-.16-1.26-.34-1.88-.52l-.7-.21-1.47-.46-.53-.17c-.5-.16-1-.33-1.51-.51l-.41-.15c-.61-.21-1.22-.44-1.83-.67a64.494 64.494 0 0 1-8.25-3.94c3.65-19 19.67-32.44 38.24-32.21a38.602 38.602 0 0 1 37.83 31.96Z"/><path fill="url(#pai nt13_linear_1546_192)" d="m225.58 234.76-.75-.25a8.32 8.32 0 0 1-.64-.24l-.44-.18c.61.23 1.25.46 1.83.67Z"/><path fill="url(#paint14_linear_1546_192)" d="M253.419 239.56h-2.11c.69-.01 1.41 0 2.11 0Z"/></mask><g mask="url(#mask0_1546_192)"><path fill="currentColor" d="M-2 37h500v470H-2z"/></g><defs><linearGradient id="paint0_linear_1546_192" x1="87.179" x2="87.179" y1="251.447" y2="354.05" gradientUnits="userSpaceOnUse"><stop stop-color="#6632FA"/><stop offset="1" stop-color="#D9D9D9"/></linearGradient><linearGradient id="paint1_linear_1546_192" x1="329.536" x2="329.536" y1="344.943" y2="455.74" gradientUnits="userSpaceOnUse"><stop stop-color="#6632FA"/><stop offset="1" stop-color="#D9D9D9"/></linearGradient><linearGradient id="paint2_linear_1546_192" x1="405.869" x2="405.869" y1="251.51" y2="354.071" gradientUnits="userSpaceOnUse"><stop stop-color="#6632FA"/><stop offset="1" stop-color="#D9D9D9"/></linearGradient><linearGradient id="paint3_linear_1546_192" x1="161.968" x2="161.968" y1="251.47" y2="353.921" gradientUnits="userSpaceOnUse"><stop stop-color="#6632FA"/><stop offset="1" stop-color="#D9D9D9"/></linearGradient><linearGradient id="paint4_linear_1546_192" x1="263.287" x2="263.287" y1="251.412" y2="353.71" gradientUnits="userSpaceOnUse"><stop stop-color="#6632FA"/><stop offset="1" stop-color="#D9D9D9"/></linearGradient><linearGradient id="paint5_linear_1546_192" x1="338.957" x2="338.957" y1="251.457" y2="344.43" gradientUnits="userSpaceOnUse"><stop stop-color="#6632FA"/><stop offset="1" stop-color="#D9D9D9"/></linearGradient><linearGradient id="paint6_linear_1546_192" x1="294.688" x2="294.688" y1="291.315" y2="328.56" gradientUnits="userSpaceOnUse"><stop stop-color="#6632FA"/><stop offset="1" stop-color="#D9D9D9"/></linearGradient><linearGradient id="paint7_linear_1546_192" x1="253.52" x2="253.52" y1="136.918" y2="159.338" gradientUnits="userSpaceOnUse"><stop stop-color="#6632FA"/><stop offset="1" stop-color="#D9D9D9"/></linearGradient><linearGradient id="paint8_linear_1546_192" x1="178.988" x2="178.988" y1="105.53" y2="166.38" gradientUnits="userSpaceOnUse"><stop stop-color="#6632FA"/><stop offset="1" stop-color="#D9D9D9"/></linearGradient><linearGradient id="paint9_linear_1546_192" x1="253.458" x2="253.458" y1="73.224" y2="216.24" gradientUnits="userSpaceOnUse"><stop stop-color="#6632FA"/><stop offset="1" stop-color="#D9D9D9"/></linearGradient><linearGradient id="paint10_linear_1546_192" x1="176.114" x2="176.114" y1="167.78" y2="197.56" gradientUnits="userSpaceOnUse"><stop stop-color="#6632FA"/><stop offset="1" stop-color="#D9D9D9"/></linearGradient><linearGradient id="paint11_linear_1546_192" x1="253.52" x2="253.52" y1="136.918" y2="159.338" gradientUnits="userSpaceOnUse"><stop stop-color="#6632FA"/><stop offset="1" stop-color="#D9D9D9"/></linearGradient><linearGradient id="paint12_linear_1546_192" x1="253.433" x2="253.433" y1="198.037" y2="239.48" gradientUnits="userSpaceOnUse"><stop stop-color="#6632FA"/><stop offset="1" stop-color="#D9D9D9"/></linearGradient><linearGradient id="paint13_linear_1546_192" x1="224.665" x2="224.665" y1="234.09" y2="234.76" gradientUnits="userSpaceOnUse"><stop stop-color="#6632FA"/><stop offset="1" stop-color="#D9D9D9"/></linearGradient><linearGradient id="paint14_linear_1546_192" x1="252.364" x2="252.364" y1="239.556" y2="239.56" gradientUnits="userSpaceOnUse"><stop stop-color="#6632FA"/><stop offset="1" stop-color="#D9D9D9"/></linearGradient></defs></svg>
