<svg xmlns="http://www.w3.org/2000/svg" fill="none" viewBox="0 0 512 512"><mask id="q" width="384" height="384" x="64" y="64" maskUnits="userSpaceOnUse" style="mask-type:alpha"><path fill="url(#a)" d="M186.111 354.09a117.202 117.202 0 0 1-39.49-46.09 75.584 75.584 0 0 0 17.18 3.3 90.462 90.462 0 0 0 16.91.12 81.373 81.373 0 0 0 5.4 42.67Z"/><path fill="url(#b)" d="M178.669 180.449a77.918 77.918 0 0 0-21.56 5.05 122.681 122.681 0 0 1 47.13-39.39c-4.26 11.51-5.78 22.65-3 34.15a101.033 101.033 0 0 0-22.57.19Z"/><path fill="url(#c)" d="M148.439 219.82a53.345 53.345 0 0 1 37.139-17.823 53.34 53.34 0 0 1 20.78 3.08 53.33 53.33 0 0 1 17.981 10.863c3.44 3.1 7.79 8 11 11.45a35.005 35.005 0 0 0-13.44 20.41c-1.73 4.16-5.12 7.18-8.36 10.36-7.48 7.34-14.69 15-22.35 22.13-18.83 17.58-50.19 8.18-55.56-17-3.51-16.42 1.75-31.12 12.81-43.47Z"/><path fill="url(#d)" d="M256.048 268.4a12.782 12.782 0 0 1-9.063-21.821 12.783 12.783 0 0 1 19.677 1.967 12.774 12.774 0 0 1 2.136 7.114 12.542 12.542 0 0 1-7.84 11.828c-1.559.63-3.228.94-4.91.912Z"/><path fill="url(#e)" d="M280.912 320.581c8.65 9.33 11 20.54 7.19 32.64-3.81 12.1-12.27 20.19-24.7 22.59-16.82 3.25-31.7-2.07-44.06-13.57-21.85-20.35-22.88-53.6-2.62-75.52 3.29-3.56 7.5-8 10.62-11a33.002 33.002 0 0 0 11.6 10.49 34.314 34.314 0 0 0 8.14 3.29l.2.06c3.5 1 6.07 3.18 8.61 5.79 8.27 8.45 16.96 16.54 25.02 25.23Z"/><path fill="url(#f)" d="M232.42 192.17c-10.76-10.88-13.22-26-6.51-39.21 6.71-13.21 20.79-19.88 35.93-18.19a53.77 53.77 0 0 1 47 43.72c2.9 15.68-.72 30-10.55 42.51-3.74 4.76-9.12 9.66-13.68 14.43a35.131 35.131 0 0 0-15.36-12.21 27.973 27.973 0 0 0-7-2.25c-1.09-.19-2.11-1.24-3-2.09-9.01-8.88-17.97-17.75-26.83-26.71Z"/><path fill="url(#g)" d="M354.749 325.301c-12 17.3-27.42 30.32-47.05 39.89 4.33-11.57 5.81-22.63 3-34.58 15.3 1.96 29.94.68 44.05-5.31Z"/><path fill="url(#h)" d="M325.48 157.18c11.3 4.48 33 29.88 40 46.75-11.37-4.33-22.48-5.63-34.34-2.93 1.96-15.18.72-29.72-5.66-43.82Z"/><path fill="url(#i)" d="M319.349 232.29c11.11-10.95 26.2-13.45 39.57-6.67 13.2 6.69 19.84 20.7 18.14 35.89a53.726 53.726 0 0 1-43.84 46.83c-15.57 2.85-29.81-.71-42.28-10.36-5.09-4-9.52-8.77-14.56-13.49a38.002 38.002 0 0 0 9.05-9.94v-.08a34.774 34.774 0 0 0 5.08-13.35 29.482 29.482 0 0 1 2.32-2.37c8.84-8.85 17.64-17.7 26.52-26.46Z"/><path fill="url(#j)" d="m210.39 119.55-.36.13.73-.25-.23.07-.14.05Zm78.26-3.65c.8.19 1.61.38 2.41.59-.65-.17-1.3-.32-2-.48l-.41-.11Zm-1.3-.29.74.16-.26-.06-.48-.1Zm-.56-.13.56.13-.27-.07-.29-.06Zm-76 3.93.74-.24-.7.22-.04.02Zm-.4.14-.36.13.73-.25-.23.07-.14.05Zm-3.34 1.16-.33.13.34-.13h-.01ZM197 124.84l-.88.4 1.9-.85c-.39.14-.73.3-1.02.45Zm-1 .44-.63.29.71-.33-.08.04Zm-21.85 12.51-.69.5 1.58-1.1a3.593 3.593 0 0 0-.4.27l-.49.33Zm-9.3 7c.67-.55 1.36-1.1 2-1.65l-.54.42-1.46 1.23ZM447 111.37A58.418 58.418 0 0 0 389.56 64H122.44A58.41 58.41 0 0 0 64 122.44v267.12a58.374 58.374 0 0 0 17.1 41.341A58.38 58.38 0 0 0 122.44 448h267.12a58.417 58.417 0 0 0 41.332-17.108A58.405 58.405 0 0 0 448 389.56V122.44a58.478 58.478 0 0 0-1-11.07Zm-58.37 0a11.913 11.913 0 0 1 8.422 20.332 11.912 11.912 0 0 1-20.332-8.422 11.91 11.91 0 0 1 11.86-11.89l.05-.02Zm-265.16 0a11.91 11.91 0 1 1-11.97 11.93 11.902 11.902 0 0 1 7.359-11.006 11.915 11.915 0 0 1 4.561-.904l.05-.02Zm0 288a11.921 11.921 0 0 1-8.439-20.349 11.922 11.922 0 0 1 20.349 8.439 11.913 11.913 0 0 1-3.516 8.424 11.927 11.927 0 0 1-8.444 3.466l.05.02ZM360 354.52c-.83.87-1.66 1.72-2.5 2.56-2 2-4.07 3.95-6.19 5.82s-4.25 3.65-6.44 5.4c-1.2.94-2.413 1.86-3.64 2.76-.46.35-.94.7-1.41 1a136.479 136.479 0 0 1-7.84 5.26c-.667.407-1.317.807-1.95 1.2-.27.16-.53.33-.8.48l-.78.45c-.71.43-1.43.84-2.15 1.24-1.49.85-3 1.66-4.53 2.45-.6.32-1.22.63-1.83.93-1.81.91-3.66 1.78-5.52 2.6-.57.25-1.12.52-1.69.76l-.51.21c-.44.2-.89.39-1.34.57-1 .41-1.95.79-2.93 1.17l-1.93.73c-1 .39-2.07.77-3.12 1.13-.163.07-.33.131-.5.18l-.15.05c-1.333.46-2.693.9-4.08 1.32l-2.06.62c-1.38.4-2.76.78-4.16 1.14-.58.16-1.16.3-1.75.44-1.72.42-3.45.807-5.19 1.16-2.92.613-5.867 1.123-8.84 1.53-.6.09-1.19.17-1.79.24a143.714 143.714 0 0 1-18.38 1.19c-2.51 0-5-.06-7.49-.2l-2.35-.14-.73-.06c-.54 0-1.08-.07-1.61-.12h-.42l-1.49-.13-1.9-.2-1.7-.2c-1-.12-2-.25-2.93-.39-.93-.14-2.06-.33-3.09-.5h-.24l-1.69-.29-.86-.16-1-.2-.52-.1c-1-.19-1.92-.39-2.87-.6-.95-.21-1.66-.36-2.48-.57h-.12l-2.25-.56c-.79-.2-1.58-.41-2.36-.63l-2-.56-2-.61-1.58-.5-1.42-.46-.15-.05-1.94-.67-1.17-.41c-1-.37-2.06-.75-3.08-1.14l-2.59-1c-.91-.37-1.82-.75-2.72-1.15l-1.89-.83c-1.2-.53-2.39-1.09-3.58-1.67-.6-.28-1.2-.58-1.79-.88-.88-.44-1.77-.89-2.64-1.35l-.33-.17h-.06l-.94-.5-.53-.29c-.7-.38-1.4-.76-2.09-1.16-.69-.4-1.45-.83-2.17-1.26l-1.17-.7a108.5 108.5 0 0 1-3.24-2c-.57-.36-1.15-.72-1.72-1.11-.9-.59-1.8-1.19-2.68-1.81-.88-.62-1.56-1.09-2.33-1.65-1.77-1.27-3.5-2.6-5.21-3.95-.5-.4-1-.78-1.51-1.19l-.5-.42-.86-.71c-.72-.59-1.43-1.2-2.13-1.81l-.5-.44-1-.85c-.39-.34-.77-.69-1.15-1l-.3-.27c-.69-.64-1.38-1.28-2.06-1.93a150.7 150.7 0 0 1-2.31-2.25c-.76-.76-1.8-1.82-2.7-2.76a143.498 143.498 0 0 1-2.05-195.18c1.54-1.69 3.13-3.35 4.75-5 .79-.79 1.59-1.57 2.39-2.33.44-.42.88-.84 1.33-1.25.81-.77 1.64-1.52 2.48-2.25a.234.234 0 0 1 .07-.07c.83-.74 1.68-1.48 2.54-2.19.49-.42 1-.83 1.49-1.24.67-.55 1.36-1.1 2-1.65l1-.78c1-.75 1.93-1.47 2.91-2.19l.59-.44c.26-.2.52-.39.78-.57l1.29-.91 1.58-1.1 1.52-1 .18-.12 1.74-1.13 1-.63 1.6-1a35.545 35.545 0 0 1 2.1-1.26c.65-.39 1.3-.77 2-1.15.42-.24.84-.48 1.27-.71l.39-.22.81-.44c.29-.17.59-.33.89-.48l1.46-.77c.62-.333 1.25-.667 1.89-1l1.4-.7 1.17-.56 1.7-.79c.62-.293 1.24-.573 1.86-.84l.91-.4c1.1-.48 2.2-1 3.31-1.41l1.05-.41 1.16-.46 1.78-.67.54-.2.34-.13.46-.16 2.38-.83h.13l.73-.25.74-.24H211.69l2.91-.92c1.27-.38 2.55-.74 3.83-1.09a81.419 81.419 0 0 1 3.42-.87c2.51-.62 5.06-1.17 7.63-1.65.75-.14 1.51-.28 2.27-.4s1.6-.27 2.4-.4c1.56-.24 3.13-.45 4.71-.63a142.708 142.708 0 0 1 17.14-1c2.51 0 5 .06 7.49.2a150.575 150.575 0 0 1 10.2.89l1.68.22H275.95c.145.01.288.03.43.06 1.31.19 2.62.41 3.92.63l1.1.19.92.17c.093-.01.187-.01.28 0h.1c.95.18 1.91.36 2.86.56.41.09.82.17 1.23.27H287.08l.6.14h.1l-.43-.09.62.13 1.03.15c.67.16 1.35.32 2 .5l.76.19 2.07.55c.92.253 1.83.513 2.73.78l2.69.82 2.6.85c1 .33 2 .68 2.94 1l2.38.89c.86.33 1.73.67 2.59 1l2.57 1.07 2.54 1.12c.84.38 1.68.77 2.52 1.17l1.09.52 1.92 1 1.26.64 2.17 1.15c.95.5 1.89 1 2.82 1.55l.22.13c.88.49 1.75 1 2.62 1.53l.09.05c.9.54 1.79 1.08 2.68 1.65.89.57 2 1.29 3 2 .8.52 1.59 1.06 2.37 1.61 1.79 1.24 3.55 2.53 5.28 3.85l.37.27c.74.57 1.47 1.15 2.2 1.73 1 .79 2 1.59 2.95 2.41 0 0 .05 0 .07.05.075.054.145.114.21.18.47.38.93.78 1.39 1.19l.23.2a.172.172 0 0 1 .06.06c1.62 1.43 3.2 2.88 4.76 4.36.78.75 1.55 1.5 2.31 2.26.76.76 1.42 1.43 2.11 2.16.1.113.2.213.3.3a143.51 143.51 0 0 1 2.23 195.36c-.62.77-1.38 1.57-2.1 2.37Zm28.62 45.85a11.922 11.922 0 0 1-11.691-14.245 11.92 11.92 0 1 1 11.651 14.245h.04ZM287.08 115.54l-.29-.06.56.13-.27-.07ZM166.35 143.6l-1.51 1.23c.67-.55 1.36-1.1 2-1.65l-.49.42Zm8.28-6.14-.49.33-.69.5 1.58-1.1a3.593 3.593 0 0 0-.4.27Zm35.76-17.91-.36.13.73-.25-.23.07-.14.05Zm77.44-3.84-.48-.1.74.16-.26-.06Zm-1-.23.56.13-.27-.07-.29-.06Z"/><path fill="url(#k)" d="M154.539 357.08a143.61 143.61 0 0 0 94 41.83 142.998 142.998 0 0 1-94-41.83Z"/><path fill="url(#l)" d="M218.412 117.119a143.715 143.715 0 0 0-55.06 28.95 142.87 142.87 0 0 1 55.06-28.95Z"/><path fill="url(#m)" d="M256.131 242.85c2.531.03 4.996.811 7.082 2.244a12.772 12.772 0 0 1 5.264 13.206 12.783 12.783 0 0 1-17.582 9.055 12.778 12.778 0 0 1-7.694-11.955 12.545 12.545 0 0 1 3.803-9.017 12.543 12.543 0 0 1 9.127-3.533Z"/><path fill="url(#n)" d="M291.879 394.58a143.893 143.893 0 0 0 59.39-31.68 142.9 142.9 0 0 1-59.39 31.68Z"/><path fill="url(#o)" d="M351.27 362.9c2.12-1.88 4.183-3.82 6.19-5.82-2 2-4.07 3.92-6.19 5.82Z"/><path fill="url(#p)" d="M357.568 154.28a143.528 143.528 0 0 0-94.08-41.94 143 143 0 0 1 94.08 41.94Z"/></mask><g mask="url(#q)"><path fill="currentColor" d="M-2 37h500v470H-2z"/></g><defs><linearGradient id="a" x1="166.366" x2="166.366" y1="308" y2="354.09" gradientUnits="userSpaceOnUse"><stop/><stop offset="1" stop-color="#666"/></linearGradient><linearGradient id="b" x1="180.674" x2="180.674" y1="146.109" y2="185.499" gradientUnits="userSpaceOnUse"><stop/><stop offset="1" stop-color="#666"/></linearGradient><linearGradient id="c" x1="184.945" x2="184.945" y1="201.928" y2="289.314" gradientUnits="userSpaceOnUse"><stop/><stop offset="1" stop-color="#666"/></linearGradient><linearGradient id="d" x1="256.019" x2="256.019" y1="242.84" y2="268.402" gradientUnits="userSpaceOnUse"><stop/><stop offset="1" stop-color="#666"/></linearGradient><linearGradient id="e" x1="246.038" x2="246.038" y1="275.721" y2="376.752" gradientUnits="userSpaceOnUse"><stop/><stop offset="1" stop-color="#666"/></linearGradient><linearGradient id="f" x1="265.997" x2="265.997" y1="134.512" y2="235.43" gradientUnits="userSpaceOnUse"><stop/><stop offset="1" stop-color="#666"/></linearGradient><linearGradient id="g" x1="331.224" x2="331.224" y1="325.301" y2="365.191" gradientUnits="userSpaceOnUse"><stop/><stop offset="1" stop-color="#666"/></linearGradient><linearGradient id="h" x1="345.48" x2="345.48" y1="157.18" y2="203.93" gradientUnits="userSpaceOnUse"><stop/><stop offset="1" stop-color="#666"/></linearGradient><linearGradient id="i" x1="326.85" x2="326.85" y1="221.863" y2="309.294" gradientUnits="userSpaceOnUse"><stop/><stop offset="1" stop-color="#666"/></linearGradient><linearGradient id="j" x1="256" x2="256" y1="64" y2="448" gradientUnits="userSpaceOnUse"><stop/><stop offset="1" stop-color="#666"/></linearGradient><linearGradient id="k" x1="201.539" x2="201.539" y1="357.08" y2="398.91" gradientUnits="userSpaceOnUse"><stop/><stop offset="1" stop-color="#666"/></linearGradient><linearGradient id="l" x1="190.882" x2="190.882" y1="117.119" y2="146.069" gradientUnits="userSpaceOnUse"><stop/><stop offset="1" stop-color="#666"/></linearGradient><linearGradient id="m" x1="255.979" x2="255.979" y1="242.844" y2="268.409" gradientUnits="userSpaceOnUse"><stop/><stop offset="1" stop-color="#666"/></linearGradient><linearGradient id="n" x1="321.574" x2="321.574" y1="362.9" y2="394.58" gradientUnits="userSpaceOnUse"><stop/><stop offset="1" stop-color="#666"/></linearGradient><linearGradient id="o" x1="354.365" x2="354.365" y1="357.08" y2="362.9" gradientUnits="userSpaceOnUse"><stop/><stop offset="1" stop-color="#666"/></linearGradient><linearGradient id="p" x1="310.528" x2="310.528" y1="112.34" y2="154.28" gradientUnits="userSpaceOnUse"><stop/><stop offset="1" stop-color="#666"/></linearGradient></defs></svg>
