<svg xmlns="http://www.w3.org/2000/svg" fill="none" viewBox="0 0 512 512"><mask id="mask0_1546_186" width="361" height="388" x="75" y="64" maskUnits="userSpaceOnUse" style="mask-type:alpha"><path fill="url(#paint0_linear_1546_186)" d="M372.449 174.78c-4.9-20.44-9.681-40.91-14.61-61.34-1.48-6.15-5.4-9.13-11.87-9.29-5-.13-10-.13-15 0a4.25 4.25 0 0 1-4.4-2.57c-5.25-9.62-10.75-19.11-15.94-28.76a.877.877 0 0 0-.07-.12 16.839 16.839 0 0 0-14.8-8.7h-80.12a17.071 17.071 0 0 0-15 9c-5.13 9.54-10.581 18.91-15.771 28.42-1.09 2-2.319 2.87-4.649 2.8-5.11-.16-10.23-.1-15.34 0-5.3.09-9.001 2.69-10.871 7.63a38.785 38.785 0 0 0-1.169 4.7c-4.594 19.113-9.18 38.22-13.76 57.32-1.6 6.67-.1 10.53 5.58 14.47 4 2.77 21.55 15.3 25.59 18.37 1.64 1.24 1.41 4 1.31 6.74-.22 5.94-.49 22.4-.49 28.16 6.44-.82 12.46-2.17 18.49-2.23 25.08-.26 50.16-.47 75.23-.05 25.07.42 50.21-2.33 75.38 2.29 0-10.38.079-20.73-.061-31.07 0-2.86.631-4.72 3.211-6.39 8.15-5.29 16.1-10.9 24.1-16.43 4.58-3.16 6.37-7.38 5.03-12.95Zm-149.45 6.32a11.19 11.19 0 0 1-22.381 0v-20.9a11.19 11.19 0 0 1 22.381 0v20.9Zm43.829 12.9c.005.087.005.174 0 .26v1a12.15 12.15 0 0 1-.349 1.59c-.027.126-.063.25-.111.37l-.22.6c-.051.163-.118.32-.199.47-.14.31-.301.61-.461.91a5.052 5.052 0 0 1-.259.43c-.08.14-.18.28-.28.42-.091.143-.192.28-.301.41a11.349 11.349 0 0 1-2.169 2.16 3.165 3.165 0 0 1-.371.27l-.419.27a2.141 2.141 0 0 1-.43.26 9.134 9.134 0 0 1-1.861.84 7.69 7.69 0 0 1-1.5.41c-.302.069-.61.112-.919.13a4.876 4.876 0 0 1-.66.06h-1.49c-.27 0-.53-.05-.791-.09l-.78-.15c-.26-.06-.509-.12-.759-.2l-.52-.17c-.21-.07-.41-.15-.62-.24l-.601-.28a10.916 10.916 0 0 1-1.589-.96l-.551-.43-.459-.39c-.15-.14-.301-.28-.43-.42a10.004 10.004 0 0 1-1.801-2.43 4.759 4.759 0 0 1-.28-.54l-.25-.55a9.223 9.223 0 0 1-.349-1l-.151-.53a8.05 8.05 0 0 1-.22-1.1 9.17 9.17 0 0 1-.099-.92 2.551 2.551 0 0 1 0-.41v-45.44a10.89 10.89 0 0 1 8.42-10.29l.509-.12a8.936 8.936 0 0 1 1-.15h1.131l1.7.13c.33.05.66.11 1 .19h.119l.731.21a10.694 10.694 0 0 1 7.609 9.52v.53a.965.965 0 0 1 0 .17l.03 45.2Zm43.72-12.93a11.202 11.202 0 0 1-11.194 10.866 11.203 11.203 0 0 1-11.195-10.866V160.2a11.198 11.198 0 0 1 18.995-7.702 11.198 11.198 0 0 1 3.394 7.702v20.87Z"/><path fill="url(#paint1_linear_1546_186)" d="M412.861 228.92c0 11.67-.44 22.79.1 33.85 1 20-14.73 37.81-37 37-2.84-.11-5.69 0-8.69 0 .59 4.52 1.14 8.67 1.66 12.83.14 1.11.23 2.24.27 3.36.34 8.48-4.29 13.45-12.75 13.49h-202.56c-7.27-.34-11.87-5.07-11.56-12.33.24-5.67 1-11.33 1.48-17-5.49-.32-11.12-.23-16.63-1a33.863 33.863 0 0 1-28.83-33.17c-.15-12.09 0-24.18 0-37h-9.75c-7.73-.07-12.66-4.39-12.71-11.12-.05-6.73 5-11.43 12.84-11.44 14.23 0 28.45-.05 42.68 0a11.56 11.56 0 0 1 11.72 9.52 11.136 11.136 0 0 1-7.13 12.18 18.696 18.696 0 0 1-5.5.8c-3.08.12-6.18 0-9.44 0-.1 1.22-.24 2.06-.24 2.9v32.56c0 7.31 4.65 12.42 11.9 12.69 7.25.27 14.47.15 21.7 0a5.79 5.79 0 0 0 3.5-1.65c9.67-9.47 21.21-13.89 34.76-13.85 42.053.14 84.103.14 126.15 0 13.56 0 25.06 4.44 34.77 13.87a6.85 6.85 0 0 0 4.24 1.64c6.48.17 13 .14 19.46.06 8.38-.11 13.12-5 13.14-13.4v-34.82h-9.95c-7.58-.1-12.6-4.7-12.49-11.41.1-6.45 5.28-11.13 12.46-11.15h42.67c7.21 0 12.2 4.71 12.21 11.32.01 6.61-4.84 11.11-12.22 11.22-3.27.13-6.5.05-10.26.05Z"/><path fill="url(#paint2_linear_1546_186)" d="M266.881 420.001v18.8c-.05 7.66-4.49 12.55-11.29 12.51-6.8-.04-11.17-5.08-11.19-12.7v-18.81c-1.3-.09-2.38-.24-3.45-.24h-32.95c-9.49 0-16.33 6.49-16.91 15.87-.46 7.45-5.32 12.21-12.11 11.88-6.6-.33-10.84-5.77-10.39-13.33 1.21-20.33 16.82-36 37.22-36.83 11.34-.45 22.71-.16 34.06-.2h4.51c0-7.79.07-15.23-.11-22.66 0-.82-1.38-1.88-2.35-2.34a34.184 34.184 0 0 1-16.49-16.17c-.35-.72-.63-1.47-.94-2.31a1.25 1.25 0 0 1 1.17-1.67h60a1.232 1.232 0 0 1 1.002.51 1.243 1.243 0 0 1 .178 1.11 16.44 16.44 0 0 1-.87 2.3 32.48 32.48 0 0 1-16.17 15.93c-2.35 1.05-3 2.33-3 4.78.17 6.6.06 13.21.06 20.32 1.61.08 3 .19 4.46.19 11.73.08 23.47-.19 35.19.26 19.94.77 36.59 18.57 36.47 38.49a11.499 11.499 0 0 1-10.45 11.61c-6.14.39-10.95-3.59-12.06-9.85-.51-2.91-.8-6-2-8.64-2.47-5.53-7.09-9-13.12-9.12-12.35-.34-24.71-.11-37.06-.09a6.772 6.772 0 0 0-1.41.4Z"/></mask><g mask="url(#mask0_1546_186)"><path fill="currentColor" d="M-2 37h500v470H-2z"/></g><defs><linearGradient id="paint0_linear_1546_186" x1="255.679" x2="255.679" y1="64" y2="241.62" gradientUnits="userSpaceOnUse"><stop/><stop offset="1" stop-color="#666"/></linearGradient><linearGradient id="paint1_linear_1546_186" x1="255.616" x2="255.616" y1="206.33" y2="329.45" gradientUnits="userSpaceOnUse"><stop/><stop offset="1" stop-color="#666"/></linearGradient><linearGradient id="paint2_linear_1546_186" x1="255.77" x2="255.77" y1="351.801" y2="451.311" gradientUnits="userSpaceOnUse"><stop/><stop offset="1" stop-color="#666"/></linearGradient></defs></svg>
