<svg xmlns="http://www.w3.org/2000/svg" fill="none" viewBox="0 0 512 512"><mask id="mask0_1546_164" width="385" height="338" x="64" y="94" maskUnits="userSpaceOnUse" style="mask-type:alpha"><path fill="url(#paint0_linear_1546_164)" d="M445.731 228.24a32.846 32.846 0 0 1 2.27 12.36v133.9a25.883 25.883 0 0 1-2.56 11.5c-4.1 8.24-11.36 13.39-21 16.47-45.46 14.51-91.87 24.39-139.52 27.9-34.5 2.53-68.79.16-102.86-5.37a647.722 647.722 0 0 1-92.11-22c-16.07-5.08-25.14-17-25.15-33.84V241.91c0-20.86 14.35-35.13 35.3-35.14h144.83V162h-46.58c-.3.58-.6 1.12-.86 1.67-7.15 15.22-17.31 20.71-37.64 20.36l-32.4.09c-14.53.1-16.43-7.09-17-12.94-.3-3 0-6.11 0-9.32h-11C92.76 161.72 88 157 88 150.55s4.86-11.07 11.53-11.15h10.92v-10.21a12.276 12.276 0 0 1 12.27-12.24h43c14.71 0 25.13 6.94 31.44 20.07a3.588 3.588 0 0 0 3.9 2.42c13.72-.08 27.44 0 41.17-.05a28.892 28.892 0 0 0 2.92-.29v-11.52a33.51 33.51 0 0 1 33.26-33.08c30.193-.067 60.383-.067 90.57 0 2.987.02 5.959.43 8.84 1.22a33.64 33.64 0 0 1-9 66.05c-32.187.06-64.374.06-96.56 0h-4.47v44.94h4.67c47.28 0 94.56-.09 141.84.05 14.53.05 24.75 7.31 30.91 20.33.21.41.37.78.52 1.15ZM267.601 139c.359.159.735.28 1.12.36 33.27 0 66.53.09 99.8 0a11.187 11.187 0 0 0 8.096-3.236 11.188 11.188 0 0 0 3.323-8.062 11.197 11.197 0 0 0-3.466-8.001 11.202 11.202 0 0 0-8.153-3.091c-29.78-.08-59.56-.08-89.34 0a11.212 11.212 0 0 0-11.35 11.03c-.17 3.64-.03 7.24-.03 11Zm-45 225h32.52c7.2 0 12.4-4.72 12.47-11.14.07-6.42-5.16-11.3-12.29-11.31-21.8-.05-43.61-.08-65.42.07a14.845 14.845 0 0 0-7 2 10.418 10.418 0 0 0-4.57 12 10.995 10.995 0 0 0 11 8.37c11.11.01 22.2.01 33.29.01Zm-78.53-89.82h21.3c7.1 0 12.38-4.82 12.4-11.22.02-6.4-5.21-11.22-12.36-11.24-14.2-.046-28.4-.046-42.6 0-7.16 0-12.38 4.81-12.39 11.2-.01 6.39 5.21 11.2 12.35 11.26 7.14.06 14.23-.05 21.3-.05v.05Zm224.69-22.48h-21.3c-7.1 0-12.4 4.73-12.48 11.13-.08 6.4 5.22 11.32 12.64 11.34h42.23c7.2 0 12.39-4.71 12.48-11.13.09-6.42-5.22-11.3-12.64-11.34-6.98-.08-13.95-.05-20.93-.05v.05Zm-56.23 78.62v-21.3c0-7.1-4.81-12.38-11.22-12.39-6.41-.01-11.22 5.22-11.24 12.36-.047 14.2-.047 28.4 0 42.6 0 7.15 4.82 12.38 11.21 12.39 6.39.01 11.19-5.21 11.25-12.36.06-7.15 0-14.25 0-21.35v.05Zm-179.79 33.62c3.73 0 7.47.12 11.2 0a11.208 11.208 0 0 0 8.035-19.291 11.204 11.204 0 0 0-8.155-3.119c-7.34-.14-14.69-.15-22 0a11.444 11.444 0 0 0-11.37 11.06c-.09 6.07 5 11.13 11.49 11.34 3.58.07 7.19.07 10.8.01Zm78.63-112.27a11.22 11.22 0 1 0 11.31 11.12 11.562 11.562 0 0 0-11.31-11.12Zm44.84 0a11.222 11.222 0 0 0-7.655 19.269 11.22 11.22 0 0 0 19.035-8.219 11.57 11.57 0 0 0-11.38-11.05Zm45.19 22.44a11.22 11.22 0 1 0-11.33-11.11 11.58 11.58 0 0 0 11.33 11.11Zm-179.68 22.47a11.217 11.217 0 0 0-10.422 6.846 11.222 11.222 0 0 0 8.061 15.362 11.222 11.222 0 0 0 13.491-10.908 11.562 11.562 0 0 0-11.13-11.3Zm44.85 0a11.216 11.216 0 0 0-10.378 6.908 11.218 11.218 0 0 0 19.676 10.562 11.222 11.222 0 0 0 1.902-6.23 11.553 11.553 0 0 0-11.2-11.24Zm56.11 11.11a11.219 11.219 0 0 0-13.505-10.894 11.218 11.218 0 0 0-3.859 20.373 11.216 11.216 0 0 0 6.254 1.831 11.565 11.565 0 0 0 7.796-3.453 11.566 11.566 0 0 0 3.314-7.857Zm33.8-11.11a11.225 11.225 0 0 0-10.433 6.825 11.218 11.218 0 0 0 14.515 14.802 11.22 11.22 0 0 0 7.028-10.297 11.571 11.571 0 0 0-11.11-11.33Zm123.39 11.32a11.223 11.223 0 0 0-13.298-11.145 11.217 11.217 0 0 0-8.327 15.222A11.22 11.22 0 0 0 368.551 319a11.56 11.56 0 0 0 11.32-11.1Zm-33.76 56a11.22 11.22 0 1 0-11.11-11.28 11.559 11.559 0 0 0 11.11 11.31v-.03Zm45.09-22.44a11.22 11.22 0 1 0 11.13 11.31 11.57 11.57 0 0 0-11.13-11.28v-.03Z"/></mask><g mask="url(#mask0_1546_164)"><path fill="currentColor" d="M-2 37h500v470H-2z"/></g><defs><linearGradient id="paint0_linear_1546_164" x1="256.402" x2="256.402" y1="94.45" y2="431.382" gradientUnits="userSpaceOnUse"><stop/><stop offset="1" stop-color="#666"/></linearGradient></defs></svg>
