<svg xmlns="http://www.w3.org/2000/svg" fill="none" viewBox="0 0 512 512"><mask id="mask0_1546_140" width="384" height="384" x="64" y="64" maskUnits="userSpaceOnUse" style="mask-type:alpha"><path fill="url(#paint0_linear_1546_140)" d="M296.78 192.68c0 6.4-4.78 11.16-11.41 11.28h-5.31c-.42 4-.92 7.92-1.21 11.83-.3 4.09-.4 5.73-1.86 6.58a82.706 82.706 0 0 0-76.53 83 38.144 38.144 0 0 0 8.67 23.92c.17.33.33.66.48 1a35.268 35.268 0 0 0-6.14 9.28 33.603 33.603 0 0 0 2.12 32.27 34.214 34.214 0 0 0 4.26 5.35c.956.803 1.98 1.523 3.06 2.15a.271.271 0 0 1 .104.132.276.276 0 0 1-.079.312.285.285 0 0 1-.155.066c-35.35.08-78.06 0-113.26 0-.72 0-1.44-.09-2.42-.16-5.18-58.6-10.33-117-15.52-175.73h-4.75c-7.21 0-12.13-4.68-12.06-11.37.06-6.48 5-11 12-11h208.46c6.69.02 11.52 4.71 11.55 11.09Z"/><path fill="url(#paint1_linear_1546_140)" d="M215.998 445.65a1.001 1.001 0 0 1-.247 1.421c-.149.1-.323.159-.503.169h-1.62c-25.93 0-51.87-.41-77.79.16-15.41.33-33.93-9.59-35.75-32.68-.31-4-.61-7.92-.94-12.22h101.3a66.575 66.575 0 0 0 15.55 43.15Z"/><path fill="url(#paint2_linear_1546_140)" d="M278.08 64c2.18.003 4.313.627 6.15 1.8a11.282 11.282 0 0 1 4.65 12.42 10.995 10.995 0 0 1-10.77 8.18c-13.46.06-26.93.11-40.38 0-3 0-4.75.58-5.57 3.78 0 0-2.36 7.08-3.84 10.49a3.982 3.982 0 0 1-2.73 2.16c-7.09.18-14.19.1-21.86.1a43.426 43.426 0 0 1 1.63-5c.46-1 7-18.55 7.46-19.82A18.932 18.932 0 0 1 231.19 64h46.89Z"/><path fill="url(#paint3_linear_1546_140)" d="M275.061 158.94H86.301c2.69-7.15 4.6-14.33 8-20.71 4.54-8.51 12.4-12.79 22.16-12.81 42.9-.06 85.8-.06 128.7 0 10.85 0 18.88 5.33 23.37 15.15 2.63 5.76 4.28 11.93 6.53 18.37Z"/><path fill="url(#paint4_linear_1546_140)" d="M447.592 305.091a14.712 14.712 0 0 1-9.24 13.832 14.71 14.71 0 0 1-5.76 1.048H238.372a14.706 14.706 0 0 1-10.654-4.261 14.712 14.712 0 0 1-4.346-10.619c-.41-32.47 26.49-59.85 59-59.91 17.62 0 35.236-.017 52.85-.05h.42c17.607 0 35.223.017 52.85.05 32.61.06 59.51 27.44 59.1 59.91Z"/><path fill="url(#paint5_linear_1546_140)" d="M447.589 402.25c.32 24.4-19.88 44.94-44.4 45-22.493 0-44.98.02-67.46.06h-.42c-22.493 0-44.98-.02-67.46-.06-24.52 0-44.72-20.57-44.4-45a14.713 14.713 0 0 1 4.357-10.6 14.7 14.7 0 0 1 10.643-4.25h194.15a14.696 14.696 0 0 1 14.99 14.85Z"/><path fill="url(#paint6_linear_1546_140)" d="M435.192 364.901H235.852c-9.25 0-15-7.92-11.46-15.74 2.05-4.49 5.71-6.7 10.72-6.7h200.82c5 0 8.67 2.21 10.72 6.7 3.59 7.84-2.21 15.74-11.46 15.74Z"/></mask><g mask="url(#mask0_1546_140)"><path fill="currentColor" d="M-2 37h500v470H-2z"/></g><defs><linearGradient id="paint0_linear_1546_140" x1="180.775" x2="180.775" y1="181.59" y2="379.885" gradientUnits="userSpaceOnUse"><stop/><stop offset="1" stop-color="#666"/></linearGradient><linearGradient id="paint1_linear_1546_140" x1="157.67" x2="157.67" y1="402.5" y2="447.408" gradientUnits="userSpaceOnUse"><stop/><stop offset="1" stop-color="#666"/></linearGradient><linearGradient id="paint2_linear_1546_140" x1="246.51" x2="246.51" y1="64" y2="102.948" gradientUnits="userSpaceOnUse"><stop/><stop offset="1" stop-color="#666"/></linearGradient><linearGradient id="paint3_linear_1546_140" x1="180.681" x2="180.681" y1="125.375" y2="158.94" gradientUnits="userSpaceOnUse"><stop/><stop offset="1" stop-color="#666"/></linearGradient><linearGradient id="paint4_linear_1546_140" x1="335.482" x2="335.482" y1="245.131" y2="319.974" gradientUnits="userSpaceOnUse"><stop/><stop offset="1" stop-color="#666"/></linearGradient><linearGradient id="paint5_linear_1546_140" x1="335.519" x2="335.519" y1="387.396" y2="447.31" gradientUnits="userSpaceOnUse"><stop/><stop offset="1" stop-color="#666"/></linearGradient><linearGradient id="paint6_linear_1546_140" x1="335.531" x2="335.531" y1="342.461" y2="364.901" gradientUnits="userSpaceOnUse"><stop/><stop offset="1" stop-color="#666"/></linearGradient></defs></svg>
