<svg xmlns="http://www.w3.org/2000/svg" fill="none" viewBox="0 0 512 512"><mask id="mask0_1546_161" width="338" height="384" x="87" y="64" maskUnits="userSpaceOnUse" style="mask-type:alpha"><path fill="url(#paint0_linear_1546_161)" d="M422.55 307.25c-8.12-42.75-53.06-71.73-95.09-60.56-10 2.65-19.5 7.37-29.12 11.41a101.905 101.905 0 0 1-31.5 7.87v-44h55.08a37.287 37.287 0 0 0 5.6-.22c18.12-2.72 30.4-18.2 29.09-36.59-1.21-17-16.17-30.47-33.87-30.51-14.594-.04-29.187-.04-43.78 0-19.92 0-34.49 14.55-34.55 34.39v10.49c-13 0-25.71.06-38.37 0-6.094 0-12.174-.037-18.24-.11-6.14-.07-10.51-5-10.75-11.28-.09-2.17 0-4.35 0-6.52 0-1.07 0-2.14-.1-3.21-.19-2.51.77-3.55 3-4.65 11.89-5.88 19-15.44 19.38-28.82.47-15.71.16-31.43.1-47.15 0-6.6-4.74-11.19-11.38-11.28h-11c-.52-8.57 2.41-18.16-8.3-22.47h-6.19c-10.71 4.31-7.78 13.9-8.3 22.47h-11c-6.56.06-11.26 4.65-11.26 11.25-.06 15.72-.37 31.44.1 47.15.41 13.38 7.49 22.94 19.38 28.82 2.24 1.1 3.2 2.14 3 4.65-.06.75-.08 1.5-.09 2.25.091.325.135.662.13 1-.14 1.64.1 6.13.1 5.75v.38c.07 19.58 14.7 34.17 34.36 34.2h55.2v44.26c-4.22-.72-8.32-.88-12-2.17-11.25-3.9-22.51-7.88-33.47-12.5-15.73-6.63-31.77-9-48.56-5.59-37.86 7.73-66.73 42.76-62.59 85.53 2 20.89 8.11 40.71 17 59.67 8 17.06 17.74 32.93 32.64 45 17.88 14.46 40.12 14.94 57.39 1.21 7.52-6 13-13.69 18.23-21.66 4.69-7.2 9.29-14.47 14.33-21.43 4.61-6.35 10.46-11.36 18.23-13.63 14.71-4.29 28.48.18 38.4 13.1 5.07 6.6 9.26 13.87 14.07 20.69 4.23 6 8.31 12.2 13.24 17.6 11.53 12.62 26.05 17.77 42.91 14.26 12.86-2.67 22.58-10.79 30.93-20.5 16.9-19.68 27.08-42.82 33.84-67.57 4.5-16.72 7.08-33.59 3.78-50.98Zm-279.24 27a11.224 11.224 0 0 1-10.342-6.94 11.215 11.215 0 0 1 2.438-12.214 11.223 11.223 0 0 1 12.213-2.438A11.221 11.221 0 0 1 154.56 323a11.565 11.565 0 0 1-11.25 11.21v.04Zm22.35 22.46a11.223 11.223 0 0 1-10.289-7.03 11.223 11.223 0 0 1 14.792-14.518A11.226 11.226 0 0 1 177 345.58a11.593 11.593 0 0 1-11.34 11.09v.04Zm.21-44.91a11.213 11.213 0 0 1-10.419-6.839 11.219 11.219 0 0 1 19.598-10.703A11.22 11.22 0 0 1 177 300.47a11.568 11.568 0 0 1-11.13 11.29v.04Zm22.4 22.45a11.22 11.22 0 1 1 11.2-11.25 11.552 11.552 0 0 1-11.2 11.21v.04Zm78.64-146.34a11.177 11.177 0 0 1 11.21-10.8c14.946-.14 29.89-.14 44.83 0a11.35 11.35 0 0 1 11.26 11.17 11.22 11.22 0 0 1-10.87 11.16c-18.66.19-37.32.07-56.47.07 0-4.21-.18-7.93.04-11.64v.04Zm9.56 146.36h-41.85c-7.44 0-12.73-4.8-12.67-11.32.06-6.52 5.33-11.12 12.83-11.15h41.85c7.44 0 12.73 4.8 12.67 11.31-.06 6.51-5.3 11.1-12.83 11.12v.04Zm90 0h-9.77c0 3.87.06 7.23 0 10.58-.16 6.81-5.19 12-11.41 11.85-6.22-.15-10.9-5.19-11-11.84-.07-3.35 0-6.71 0-10.59h-4.14c-12.78 0-18.37-3.49-18.3-11.34.07-7.85 5.59-11.12 18.48-11.15h4v-9.65c.05-7.48 4.71-12.78 11.23-12.78 6.52 0 11.2 5.26 11.25 12.76v9.67h9.93c7.23.07 12.42 4.7 12.5 11.12.08 6.42-5.34 11.27-12.78 11.33l.01.04Z"/></mask><g mask="url(#mask0_1546_161)"><path fill="currentColor" d="M25 42h554v544H25z"/></g><defs><linearGradient id="paint0_linear_1546_161" x1="255.603" x2="255.603" y1="64.04" y2="447.377" gradientUnits="userSpaceOnUse"><stop/><stop offset="1" stop-color="#666"/></linearGradient></defs></svg>
