<svg xmlns="http://www.w3.org/2000/svg" fill="none" viewBox="0 0 512 512"><mask id="c" width="403" height="341" x="59" y="95" maskUnits="userSpaceOnUse" style="mask-type:alpha"><path fill="url(#a)" d="M310 147.72H97.81a38.09 38.09 0 0 0-38.06 38.06v159.91c.002 2.215.193 4.427.57 6.61a38.07 38.07 0 0 0 37.49 31.45h66.32v26.06c-4.76 0-9.33-.26-13.86.06a12.855 12.855 0 0 0-8.229 3.702 12.855 12.855 0 0 0-3.771 8.198 13.121 13.121 0 0 0 9.5 13.65c1.517.374 3.078.539 4.64.49h102.77c8.41 0 14-5.27 14.08-13 .08-7.73-5.46-13.05-13.85-13.25-3.9-.09-7.8 0-11.93 0v-25.91H310a38.061 38.061 0 0 0 38-38.06V185.78a38.064 38.064 0 0 0-11.126-26.892A38.064 38.064 0 0 0 310 147.72ZM203.88 339.05a11.772 11.772 0 0 1 10.883 7.272 11.78 11.78 0 1 1-10.883-7.272Zm12.59 70.31h-25.41v-25.61h25.41v25.61Z"/><path fill="url(#b)" d="M295.38 409.58h14.56c33.57-.24 63.4-21.92 64.18-66.91-.16-19.61 0-39.23 0-58.84v-5.17h5c14 0 28 .05 42 0 7.76 0 13.09-4.37 13.91-11 1-8.57-4.5-14.84-13.53-14.92-13.73-.13-27.46 0-41.19 0h-5.79v-26.36h46.33c7.36 0 12.81-4 14.07-10.08 1.77-8.52-3.95-15.84-12.69-15.92-14.38-.11-28.76 0-43.15 0h-5.12v-26.5h3.41c14.91 0 29.82.05 44.72 0A12.848 12.848 0 0 0 434.91 163c1-7-2.77-13-9.38-14.72a20.183 20.183 0 0 0-5-.43c-18.7 0-37.4 0-56.1-.11a7.27 7.27 0 0 1-5-2c-14.05-16.47-26.9-23.19-53.44-24.17h-9.92s-.8-11.42.05-16.76c.85-5.34 6.17-9.16 11.6-9.44 1.17-.07 2.35 0 3.53 0 44.85 0 89.7.18 134.55-.15 10.11-.07 15.83 6.38 15.8 15.88a88701.394 88701.394 0 0 0-.14 309.51c0 10.5-4.79 15.32-15.29 15.32H310.82c-10.39 0-15.39-5-15.44-15.33-.02-3.51 0-7.01 0-11.02Zm126.67-78.64a12.678 12.678 0 0 0 9.187-3.606 12.667 12.667 0 0 0 3.813-9.104 13.001 13.001 0 0 0-13-13.28 13.292 13.292 0 0 0-13 13.06 12.902 12.902 0 0 0 3.8 9.18 12.888 12.888 0 0 0 9.2 3.75Zm13 39.62a12.932 12.932 0 0 0-12.7-13.15 13.002 13.002 0 0 0-.27 26 12.82 12.82 0 0 0 13.01-12.85h-.04Z"/></mask><g mask="url(#c)"><path fill="currentColor" d="M-2 37h500v470H-2z"/></g><defs><linearGradient id="a" x1="203.875" x2="203.875" y1="147.72" y2="435.918" gradientUnits="userSpaceOnUse"><stop stop-color="#6632FA"/><stop offset="1" stop-color="#D9D9D9"/></linearGradient><linearGradient id="b" x1="378.486" x2="378.486" y1="95.22" y2="435.93" gradientUnits="userSpaceOnUse"><stop stop-color="#6632FA"/><stop offset="1" stop-color="#D9D9D9"/></linearGradient></defs></svg>
