<svg xmlns="http://www.w3.org/2000/svg" fill="none" viewBox="0 0 512 512"><mask id="i" width="384" height="361" x="69" y="75" maskUnits="userSpaceOnUse" style="mask-type:alpha"><path fill="url(#a)" d="M261.93 75.47a171.37 171.37 0 0 0-73 16 166.379 166.379 0 0 0-47.13 33.17c-3.93 3.93-4.71 9.12-2.21 13.68 2.34 4.24 7.4 7.06 12 5.43 3.46-1.23 6.61-3.82 9.41-6.34 39.18-35.14 84.5-46.59 135.56-34.75 25.85 6 47.86 19.27 66.82 37.75 5.13 5 12.21 4.89 16.63.13 4.42-4.76 4-11.43-1-16.35C346 92.11 306.43 76.12 261.93 75.47Zm-.32 44.92a126.529 126.529 0 0 0-48.75 9.61 123.086 123.086 0 0 0-39.17 26.28c-3.39 3.36-4.57 7.35-3.05 11.94 1.52 4.59 4.94 7.1 9.67 7.62 4.36.48 7.48-1.88 10.51-4.7 24.787-23.027 53.923-31.843 87.41-26.45 20.69 3.34 38.23 13 53.28 27.39 5.32 5.1 12.06 5.14 16.63.36 4.57-4.78 4.11-11.6-1.06-16.61-24.03-23.28-52.86-34.83-85.47-35.44Zm-115.5 135.05c-.72-1.87-1.16-3.14-1.69-4.38-9.807-22.867-19.613-45.737-29.42-68.61a56955.24 56955.24 0 0 1-23.08-53.87c-2.53-5.89-7.3-8.92-12.46-8-7.7 1.32-11.75 8.75-8.61 16.18 6.8 16 13.73 32 20.59 48 9.6 22.41 19.15 44.84 28.85 67.21.62 1.41 2.32 3.27 3.58 3.32 7.2.31 14.44.15 22.24.15Zm228.88 0c7.44 0 14.17-.16 20.89.07 2.85.1 4.14-.93 5.21-3.48 8.13-19.25 16.42-38.44 24.65-57.66 8.23-19.22 16.32-38.21 24.53-57.3 2-4.68 1.72-9-1.72-12.86-5.86-6.55-15.46-4.36-19.22 4.4-13.333 31.08-26.667 62.18-40 93.3l-14.34 33.53ZM260.54 166c-20.56.37-39.29 6.88-54.73 21.69-5.11 4.89-5.47 11.58-1.05 16.33 4.42 4.75 11.19 4.68 16.67 0a72.978 72.978 0 0 1 11.39-8.39 57.064 57.064 0 0 1 66.87 8.22c3.24 3 6.83 4.61 11.22 3.44a10.797 10.797 0 0 0 8.22-8.3c1.16-4.65-.52-8.32-3.8-11.43-15.18-14.43-33.52-20.96-54.79-21.56Z"/><path fill="url(#b)" d="M69 305.779c2-4.51 3.35-9.42 6-13.45 6.72-10.05 16.64-14.68 28.66-14.73 15.46-.07 30.93 0 46.39 0h266.4c17.1 0 30.3 9.45 34.49 24.85a37.293 37.293 0 0 1 1.19 9.59c.11 21.7.06 43.4.06 65.1 0 20.68-14 35-34.74 35.49-3.23.07-6.46 0-10.18 0v11.35c-.07 6.73-5.11 11.93-11.4 11.78-6.29-.15-11-5.2-11-11.79v-11.06H136.35v11.11c-.07 6.58-4.84 11.62-11.06 11.74-6.22.12-11.3-5.08-11.36-11.83v-11.68c-5.08 0-9.93.42-14.68-.08-14.94-1.59-25.89-11.5-29.5-26.17a9.596 9.596 0 0 0-.75-1.63v-78.59Zm226.05 39.29c0 3.61-.09 7.23 0 10.85.18 6.58 4.76 11.3 10.93 11.41 6.43.12 11.33-4.5 11.48-11.21.167-7.333.167-14.693 0-22.08-.14-6.57-4.86-11.18-11.09-11.22-6.39 0-11.13 4.66-11.32 11.39-.05 3.62 0 7.24 0 10.86Zm44.91 0c0 3.61-.08 7.23 0 10.85.18 6.58 4.76 11.3 10.93 11.41 6.43.12 11.33-4.5 11.48-11.21.167-7.333.167-14.693 0-22.08-.15-6.57-4.87-11.18-11.1-11.22-6.39 0-11.12 4.66-11.32 11.39-.08 3.62.05 7.24.05 10.86h-.04Zm67.39-.34c0-3.5.09-7 0-10.48-.2-6.77-4.89-11.46-11.28-11.43-6.39.03-11.07 4.77-11.17 11.56a708.714 708.714 0 0 0 0 21.33c.1 6.8 4.75 11.57 11.1 11.62 6.55.05 11.21-4.73 11.35-11.75.06-3.58 0-7.24 0-10.85Z"/><path fill="url(#c)" d="M261.929 75.47c44.5.65 84.1 16.64 117.06 48.77 5.05 4.92 5.42 11.63 1 16.35-4.42 4.72-11.5 4.87-16.63-.13-19-18.48-41-31.76-66.82-37.75-51.06-11.84-96.38-.39-135.56 34.75-2.8 2.52-6 5.11-9.41 6.34-4.6 1.63-9.66-1.19-12-5.43-2.5-4.56-1.72-9.75 2.21-13.68a166.373 166.373 0 0 1 47.22-33.17 171.373 171.373 0 0 1 72.93-16.05Z"/><path fill="url(#d)" d="M261.608 120.389c32.61.57 61.44 12.16 85.47 35.44 5.17 5 5.57 11.89 1.06 16.61-4.51 4.72-11.31 4.74-16.63-.36-15.05-14.42-32.59-24.05-53.28-27.39-33.4-5.4-62.536 3.424-87.41 26.47-3 2.82-6.15 5.18-10.51 4.7-4.73-.52-8.13-3-9.67-7.62-1.54-4.62-.34-8.58 3.05-11.94a123.088 123.088 0 0 1 39.17-26.3 126.536 126.536 0 0 1 48.75-9.61Z"/><path fill="url(#e)" d="M146.108 255.44c-7.8 0-15 .16-22.25-.16-1.26-.05-3-1.91-3.58-3.32-9.7-22.37-19.25-44.8-28.85-67.21-6.86-16-13.79-32-20.59-48-3.14-7.43.91-14.86 8.61-16.18 5.16-.88 9.93 2.15 12.46 8a25487.404 25487.404 0 0 1 23.08 53.87c9.8 22.873 19.61 45.743 29.43 68.61.58 1.25.97 2.52 1.69 4.39Z"/><path fill="url(#f)" d="m375 255.439 14.37-33.53c13.333-31.107 26.667-62.207 40-93.3 3.76-8.76 13.36-11 19.22-4.4 3.44 3.84 3.73 8.18 1.72 12.86a19804.17 19804.17 0 0 0-24.53 57.3c-8.23 19.22-16.52 38.41-24.65 57.66-1.07 2.55-2.36 3.58-5.21 3.48-6.76-.23-13.49-.07-20.92-.07Z"/><path fill="url(#g)" d="M260.541 166c21.27.56 39.61 7.09 54.79 21.54 3.28 3.11 5 6.78 3.8 11.43a10.8 10.8 0 0 1-8.22 8.3c-4.39 1.17-8-.44-11.22-3.44a57.065 57.065 0 0 0-66.87-8.22 72.931 72.931 0 0 0-11.39 8.39c-5.48 4.7-12.16 4.87-16.67 0-4.51-4.87-4.06-11.44 1.05-16.33 15.44-14.75 34.19-21.26 54.73-21.67Z"/><path fill="url(#h)" d="M244.212 240.231a11.504 11.504 0 0 1-10.744-7.336 11.496 11.496 0 0 1 2.974-12.664c14.75-13.49 33.8-13.49 48.55 0l.37.36a11.511 11.511 0 0 1 .28 16.28 11.511 11.511 0 0 1-8.082 3.511 11.508 11.508 0 0 1-8.198-3.231c-6-5.48-11.4-5.46-17.43.06a11.471 11.471 0 0 1-7.72 3.02Z"/></mask><g mask="url(#i)"><path fill="currentColor" d="M-2 37h500v470H-2z"/></g><defs><linearGradient id="a" x1="260.65" x2="260.65" y1="75.469" y2="255.517" gradientUnits="userSpaceOnUse"><stop/><stop offset="1" stop-color="#666"/></linearGradient><linearGradient id="b" x1="260.601" x2="260.601" y1="277.568" y2="435.763" gradientUnits="userSpaceOnUse"><stop/><stop offset="1" stop-color="#666"/></linearGradient><linearGradient id="c" x1="260.596" x2="260.596" y1="75.469" y2="144.268" gradientUnits="userSpaceOnUse"><stop/><stop offset="1" stop-color="#666"/></linearGradient><linearGradient id="d" x1="260.618" x2="260.618" y1="120.389" y2="175.943" gradientUnits="userSpaceOnUse"><stop/><stop offset="1" stop-color="#666"/></linearGradient><linearGradient id="e" x1="107.939" x2="107.939" y1="120.42" y2="255.48" gradientUnits="userSpaceOnUse"><stop/><stop offset="1" stop-color="#666"/></linearGradient><linearGradient id="f" x1="413.282" x2="413.282" y1="120.383" y2="255.516" gradientUnits="userSpaceOnUse"><stop/><stop offset="1" stop-color="#666"/></linearGradient><linearGradient id="g" x1="260.585" x2="260.585" y1="166" y2="207.653" gradientUnits="userSpaceOnUse"><stop/><stop offset="1" stop-color="#666"/></linearGradient><linearGradient id="h" x1="260.781" x2="260.781" y1="210.113" y2="240.384" gradientUnits="userSpaceOnUse"><stop/><stop offset="1" stop-color="#666"/></linearGradient></defs></svg>
