<svg xmlns="http://www.w3.org/2000/svg" width="18" height="18" viewBox="0 0 18 18" fill="none">
  <path d="M16.128 13.7858H14.4165C13.7692 13.7858 13.5743 13.2616 12.414 12.1006C11.4 11.1233 10.9718 11.0018 10.7153 11.0018C10.3605 11.0018 10.2638 11.0993 10.2638 11.5876V13.1266C10.2638 13.5428 10.1287 13.7866 9.04125 13.7866C7.98622 13.7157 6.96312 13.3952 6.05623 12.8514C5.14933 12.3077 4.38459 11.5563 3.825 10.6591C2.49676 9.00505 1.57231 7.06421 1.125 4.99058C1.125 4.73408 1.2225 4.50158 1.7115 4.50158H3.4215C3.861 4.50158 4.01925 4.69733 4.19175 5.14958C5.022 7.59308 6.43875 9.71858 7.014 9.71858C7.2345 9.71858 7.3305 9.62108 7.3305 9.07133V6.55433C7.25775 5.40608 6.648 5.30933 6.648 4.89383C6.65571 4.78421 6.70586 4.68192 6.78778 4.60868C6.8697 4.53544 6.97695 4.49702 7.08675 4.50158H9.77475C10.1423 4.50158 10.2638 4.68458 10.2638 5.12408V8.52158C10.2638 8.88833 10.4213 9.00983 10.5323 9.00983C10.7528 9.00983 10.9222 8.88833 11.3265 8.48483C12.1927 7.42783 12.9006 6.25051 13.428 4.98983C13.4817 4.8383 13.5837 4.70858 13.7182 4.62052C13.8527 4.53247 14.0124 4.49095 14.1727 4.50233H15.8835C16.3965 4.50233 16.5052 4.75883 16.3965 5.12483C15.7741 6.51855 15.0042 7.8416 14.1 9.07133C13.9155 9.35258 13.842 9.49883 14.1 9.82883C14.2695 10.0853 14.8695 10.5863 15.2723 11.0626C15.8588 11.6476 16.3455 12.3241 16.7137 13.0651C16.8608 13.5421 16.6163 13.7858 16.128 13.7858Z" fill="white"/>
</svg>
